<svg width="96" height="60" viewBox="0 0 96 60" fill="none" xmlns="http://www.w3.org/2000/svg">
<path d="M95.4919 57.7733C94.7432 59.0416 93.1082 59.4628 91.8399 58.7142C90.5716 57.9655 90.1504 56.3305 90.8991 55.0622C91.6477 53.7939 93.2828 53.3727 94.5511 54.1213C95.8193 54.87 96.2406 56.505 95.4919 57.7733ZM5.65869 4.74508C4.91003 6.01336 3.27498 6.4346 2.0067 5.68593C0.738418 4.93727 0.31719 3.30222 1.06585 2.03395C1.81451 0.765668 3.44956 0.344432 4.71784 1.09309C5.98612 1.84176 6.40735 3.4768 5.65869 4.74508ZM36.0022 3.68885L35.9976 4.18883L36.0022 3.68885ZM93.1909 56.9177L73.1567 56.734L73.1658 55.7341L93.2001 55.9178L93.1909 56.9177ZM53.8477 36.5431L54.3163 23.3444L55.3156 23.3798L54.8471 36.5785L53.8477 36.5431ZM35.9976 4.18883L3.35768 3.88949L3.36686 2.88954L36.0067 3.18887L35.9976 4.18883ZM54.3163 23.3444C54.6855 12.943 46.405 4.28428 35.9976 4.18883L36.0067 3.18887C46.9768 3.28948 55.7048 12.4163 55.3156 23.3798L54.3163 23.3444ZM73.1567 56.734C62.1866 56.6334 53.4585 47.5066 53.8477 36.5431L54.8471 36.5785C54.4779 46.9799 62.7584 55.6386 73.1658 55.7341L73.1567 56.734Z" fill="black"/>
</svg>
