<svg width="97" height="58" viewBox="0 0 97 58" fill="none" xmlns="http://www.w3.org/2000/svg">
<path d="M96.5705 2.13254C95.8505 0.847789 94.2253 0.389989 92.9405 1.11001C91.6558 1.83004 91.198 3.45523 91.918 4.73998C92.638 6.02473 94.2632 6.48253 95.548 5.76251C96.8327 5.04248 97.2905 3.41729 96.5705 2.13254ZM5.5705 53.1325C4.85047 51.8478 3.22529 51.39 1.94053 52.11C0.65578 52.83 0.197984 54.4552 0.918009 55.74C1.63803 57.0247 3.26322 57.4825 4.54797 56.7625C5.83273 56.0425 6.29052 54.4173 5.5705 53.1325ZM36 54.4362L36 53.9362L36 54.4362ZM94.2443 2.93626L73.9999 2.93626L73.9999 3.93626L94.2443 3.93626L94.2443 2.93626ZM54.4999 22.4363L54.5 35.4361L55.5 35.4361L55.4999 22.4363L54.4999 22.4363ZM36 53.9362L3.24425 53.9363L3.24426 54.9363L36 54.9362L36 53.9362ZM54.5 35.4361C54.5 45.6534 46.2173 53.9362 36 53.9362L36 54.9362C46.7695 54.9362 55.5 46.2057 55.5 35.4361L54.5 35.4361ZM73.9999 2.93626C63.2304 2.93626 54.4999 11.6667 54.4999 22.4363L55.4999 22.4363C55.4999 12.219 63.7826 3.93625 73.9999 3.93626L73.9999 2.93626Z" fill="black"/>
</svg>
